<mxfile host="app.diagrams.net" agent="Mozilla/5.0 (X11; Ubuntu; Linux x86_64; rv:137.0) Gecko/20100101 Firefox/137.0" version="26.2.13">
  <diagram id="C5RBs43oDa-KdzZeNtuy" name="Page-1">
    <mxGraphModel dx="2645" dy="829" grid="1" gridSize="10" guides="1" tooltips="1" connect="1" arrows="1" fold="1" page="1" pageScale="1" pageWidth="827" pageHeight="1169" math="0" shadow="0">
      <root>
        <mxCell id="WIyWlLk6GJQsqaUBKTNV-0" />
        <mxCell id="WIyWlLk6GJQsqaUBKTNV-1" parent="WIyWlLk6GJQsqaUBKTNV-0" />
        <mxCell id="6_8KwjZQ5-gkqyheN0VY-24" style="edgeStyle=orthogonalEdgeStyle;rounded=0;orthogonalLoop=1;jettySize=auto;html=1;" edge="1" parent="WIyWlLk6GJQsqaUBKTNV-1" source="WIyWlLk6GJQsqaUBKTNV-3" target="6_8KwjZQ5-gkqyheN0VY-10">
          <mxGeometry relative="1" as="geometry" />
        </mxCell>
        <mxCell id="WIyWlLk6GJQsqaUBKTNV-3" value="INICIO" style="rounded=1;whiteSpace=wrap;html=1;fontSize=12;glass=0;strokeWidth=1;shadow=0;" parent="WIyWlLk6GJQsqaUBKTNV-1" vertex="1">
          <mxGeometry x="285" y="20" width="120" height="40" as="geometry" />
        </mxCell>
        <mxCell id="6_8KwjZQ5-gkqyheN0VY-45" style="edgeStyle=orthogonalEdgeStyle;rounded=0;orthogonalLoop=1;jettySize=auto;html=1;entryX=0;entryY=0.5;entryDx=0;entryDy=0;" edge="1" parent="WIyWlLk6GJQsqaUBKTNV-1" source="6_8KwjZQ5-gkqyheN0VY-8" target="6_8KwjZQ5-gkqyheN0VY-18">
          <mxGeometry relative="1" as="geometry" />
        </mxCell>
        <mxCell id="6_8KwjZQ5-gkqyheN0VY-8" value="EL NUMERO ES &quot;0&quot;" style="shape=parallelogram;perimeter=parallelogramPerimeter;whiteSpace=wrap;html=1;fixedSize=1;" vertex="1" parent="WIyWlLk6GJQsqaUBKTNV-1">
          <mxGeometry x="-30" y="650" width="160" height="80" as="geometry" />
        </mxCell>
        <mxCell id="6_8KwjZQ5-gkqyheN0VY-30" style="edgeStyle=orthogonalEdgeStyle;rounded=0;orthogonalLoop=1;jettySize=auto;html=1;entryX=0.65;entryY=0.025;entryDx=0;entryDy=0;entryPerimeter=0;" edge="1" parent="WIyWlLk6GJQsqaUBKTNV-1" source="6_8KwjZQ5-gkqyheN0VY-9" target="6_8KwjZQ5-gkqyheN0VY-33">
          <mxGeometry relative="1" as="geometry">
            <mxPoint x="760" y="790" as="targetPoint" />
          </mxGeometry>
        </mxCell>
        <mxCell id="6_8KwjZQ5-gkqyheN0VY-34" value="NO" style="edgeLabel;html=1;align=center;verticalAlign=middle;resizable=0;points=[];" vertex="1" connectable="0" parent="6_8KwjZQ5-gkqyheN0VY-30">
          <mxGeometry x="0.0375" y="-2" relative="1" as="geometry">
            <mxPoint as="offset" />
          </mxGeometry>
        </mxCell>
        <mxCell id="6_8KwjZQ5-gkqyheN0VY-31" style="edgeStyle=orthogonalEdgeStyle;rounded=0;orthogonalLoop=1;jettySize=auto;html=1;" edge="1" parent="WIyWlLk6GJQsqaUBKTNV-1" source="6_8KwjZQ5-gkqyheN0VY-9">
          <mxGeometry relative="1" as="geometry">
            <mxPoint x="280" y="790" as="targetPoint" />
          </mxGeometry>
        </mxCell>
        <mxCell id="6_8KwjZQ5-gkqyheN0VY-35" value="SI" style="edgeLabel;html=1;align=center;verticalAlign=middle;resizable=0;points=[];" vertex="1" connectable="0" parent="6_8KwjZQ5-gkqyheN0VY-31">
          <mxGeometry x="-0.0537" relative="1" as="geometry">
            <mxPoint as="offset" />
          </mxGeometry>
        </mxCell>
        <mxCell id="6_8KwjZQ5-gkqyheN0VY-9" value="NUMERO &amp;lt;0" style="shape=parallelogram;perimeter=parallelogramPerimeter;whiteSpace=wrap;html=1;fixedSize=1;" vertex="1" parent="WIyWlLk6GJQsqaUBKTNV-1">
          <mxGeometry x="420.5" y="590" width="170" height="85" as="geometry" />
        </mxCell>
        <mxCell id="6_8KwjZQ5-gkqyheN0VY-15" style="edgeStyle=orthogonalEdgeStyle;rounded=0;orthogonalLoop=1;jettySize=auto;html=1;" edge="1" parent="WIyWlLk6GJQsqaUBKTNV-1" source="6_8KwjZQ5-gkqyheN0VY-10" target="6_8KwjZQ5-gkqyheN0VY-12">
          <mxGeometry relative="1" as="geometry" />
        </mxCell>
        <mxCell id="6_8KwjZQ5-gkqyheN0VY-10" value="DIGITAR NUMERO" style="shape=parallelogram;perimeter=parallelogramPerimeter;whiteSpace=wrap;html=1;fixedSize=1;" vertex="1" parent="WIyWlLk6GJQsqaUBKTNV-1">
          <mxGeometry x="269.5" y="240" width="151" height="60" as="geometry" />
        </mxCell>
        <mxCell id="6_8KwjZQ5-gkqyheN0VY-16" style="edgeStyle=orthogonalEdgeStyle;rounded=0;orthogonalLoop=1;jettySize=auto;html=1;exitX=0;exitY=0.5;exitDx=0;exitDy=0;" edge="1" parent="WIyWlLk6GJQsqaUBKTNV-1">
          <mxGeometry relative="1" as="geometry">
            <mxPoint x="285" y="450" as="sourcePoint" />
            <mxPoint x="40" y="650" as="targetPoint" />
          </mxGeometry>
        </mxCell>
        <mxCell id="6_8KwjZQ5-gkqyheN0VY-38" value="SI" style="edgeLabel;html=1;align=center;verticalAlign=middle;resizable=0;points=[];" vertex="1" connectable="0" parent="6_8KwjZQ5-gkqyheN0VY-16">
          <mxGeometry x="0.0901" y="1" relative="1" as="geometry">
            <mxPoint as="offset" />
          </mxGeometry>
        </mxCell>
        <mxCell id="6_8KwjZQ5-gkqyheN0VY-17" style="edgeStyle=orthogonalEdgeStyle;rounded=0;orthogonalLoop=1;jettySize=auto;html=1;exitX=1;exitY=0.5;exitDx=0;exitDy=0;" edge="1" parent="WIyWlLk6GJQsqaUBKTNV-1" source="6_8KwjZQ5-gkqyheN0VY-12" target="6_8KwjZQ5-gkqyheN0VY-9">
          <mxGeometry relative="1" as="geometry" />
        </mxCell>
        <mxCell id="6_8KwjZQ5-gkqyheN0VY-29" value="NO" style="edgeLabel;html=1;align=center;verticalAlign=middle;resizable=0;points=[];" vertex="1" connectable="0" parent="6_8KwjZQ5-gkqyheN0VY-17">
          <mxGeometry x="-0.1559" y="3" relative="1" as="geometry">
            <mxPoint as="offset" />
          </mxGeometry>
        </mxCell>
        <mxCell id="6_8KwjZQ5-gkqyheN0VY-12" value="NUMERO &lt;span lang=&quot;es&quot; class=&quot;BxUVEf ILfuVd&quot;&gt;&lt;span class=&quot;hgKElc&quot;&gt;~0 &lt;br&gt;&lt;/span&gt;&lt;/span&gt;" style="rhombus;whiteSpace=wrap;html=1;" vertex="1" parent="WIyWlLk6GJQsqaUBKTNV-1">
          <mxGeometry x="286" y="390" width="119" height="120" as="geometry" />
        </mxCell>
        <mxCell id="6_8KwjZQ5-gkqyheN0VY-18" value="FIN" style="ellipse;whiteSpace=wrap;html=1;" vertex="1" parent="WIyWlLk6GJQsqaUBKTNV-1">
          <mxGeometry x="220" y="970" width="120" height="80" as="geometry" />
        </mxCell>
        <mxCell id="6_8KwjZQ5-gkqyheN0VY-39" style="edgeStyle=orthogonalEdgeStyle;rounded=0;orthogonalLoop=1;jettySize=auto;html=1;" edge="1" parent="WIyWlLk6GJQsqaUBKTNV-1" source="6_8KwjZQ5-gkqyheN0VY-32">
          <mxGeometry relative="1" as="geometry">
            <mxPoint x="280" y="780" as="targetPoint" />
          </mxGeometry>
        </mxCell>
        <mxCell id="6_8KwjZQ5-gkqyheN0VY-43" style="edgeStyle=orthogonalEdgeStyle;rounded=0;orthogonalLoop=1;jettySize=auto;html=1;" edge="1" parent="WIyWlLk6GJQsqaUBKTNV-1" source="6_8KwjZQ5-gkqyheN0VY-32" target="6_8KwjZQ5-gkqyheN0VY-18">
          <mxGeometry relative="1" as="geometry" />
        </mxCell>
        <mxCell id="6_8KwjZQ5-gkqyheN0VY-32" value="&lt;div&gt;EL NUMERO ES &lt;br&gt;&lt;/div&gt;&lt;div&gt;&quot;NEGATIVO&quot;&lt;/div&gt;" style="shape=document;whiteSpace=wrap;html=1;boundedLbl=1;" vertex="1" parent="WIyWlLk6GJQsqaUBKTNV-1">
          <mxGeometry x="220" y="810" width="120" height="70" as="geometry" />
        </mxCell>
        <mxCell id="6_8KwjZQ5-gkqyheN0VY-44" style="edgeStyle=orthogonalEdgeStyle;rounded=0;orthogonalLoop=1;jettySize=auto;html=1;entryX=1;entryY=0.5;entryDx=0;entryDy=0;" edge="1" parent="WIyWlLk6GJQsqaUBKTNV-1" source="6_8KwjZQ5-gkqyheN0VY-33" target="6_8KwjZQ5-gkqyheN0VY-18">
          <mxGeometry relative="1" as="geometry" />
        </mxCell>
        <mxCell id="6_8KwjZQ5-gkqyheN0VY-33" value="&lt;div&gt;EL NUMERO ES &lt;br&gt;&lt;/div&gt;&lt;div&gt;&quot;POSITIVO&quot;&lt;/div&gt;" style="shape=document;whiteSpace=wrap;html=1;boundedLbl=1;" vertex="1" parent="WIyWlLk6GJQsqaUBKTNV-1">
          <mxGeometry x="680" y="800" width="120" height="80" as="geometry" />
        </mxCell>
      </root>
    </mxGraphModel>
  </diagram>
</mxfile>
